<svg width="32" height="32" viewBox="0 0 32 32" fill="none" xmlns="http://www.w3.org/2000/svg">
<path d="M31.36 11.4933C31.16 10.7867 30.4133 10.3867 29.7067 10.5867C29 10.8 28.6 11.5333 28.8 12.24C29.16 13.4533 29.3333 14.7067 29.3333 15.9867C29.3333 23.3333 23.3467 29.32 16 29.32C8.65333 29.32 2.66667 23.3333 2.66667 15.9867C2.66667 8.64 8.65333 2.65333 16 2.65333C18.1067 2.65333 20.1333 3.13333 22 4.08C22.6667 4.41333 23.4533 4.14667 23.7867 3.49333C24.12 2.84 23.8533 2.04 23.2 1.70667C20.9467 0.573333 18.5333 0 16 0C7.17333 0 0 7.17333 0 16C0 24.8267 7.17333 32 16 32C24.8267 32 32 24.8267 32 16C32 14.4667 31.7867 12.96 31.36 11.5067V11.4933Z" fill="#F7941D"/>
<path d="M16.0802 16.3866C14.2535 14.1333 11.5468 12.32 11.4002 12.2266C10.7868 11.8133 9.96015 11.9866 9.54682 12.6C9.13349 13.2133 9.30682 14.04 9.92015 14.4533C10.9468 15.1466 13.8402 17.3466 14.8002 19.28C15.0135 19.6933 15.4135 19.9733 15.8668 20.0133C15.9068 20.0133 15.9468 20.0133 15.9868 20.0133C16.4002 20.0133 16.8002 19.8133 17.0535 19.48C17.1335 19.3733 24.9335 9.03997 29.9202 6.5333C30.5735 6.19997 30.8401 5.39996 30.5201 4.74663C30.1868 4.0933 29.3868 3.82663 28.7335 4.14663C24.3601 6.3333 18.5202 13.3066 16.0802 16.4V16.3866Z" fill="#F7941D"/>
</svg>
