<svg width="47" height="48" viewBox="0 0 47 48" fill="none" xmlns="http://www.w3.org/2000/svg">
<path d="M45.4301 37.0843L37.2312 28.8853C35.9125 27.5666 33.7337 27.5666 32.3577 28.8853L29.8922 31.3507C28.9749 32.2681 27.5415 32.2681 26.6241 31.3507L15.9597 20.6863C15.501 20.2276 15.2717 19.6543 15.2717 19.0809C15.2717 18.5076 15.501 17.8769 15.9597 17.4755L18.4251 15.0101C19.7439 13.6914 19.7439 11.5126 18.4251 10.1366L10.2835 1.93762C9.65281 1.30693 8.79278 0.905579 7.87541 0.905579C6.95804 0.905579 6.09801 1.24959 5.46732 1.93762L5.35265 2.05229C2.14186 5.26307 0.307129 9.62057 0.307129 14.2074C0.307129 18.7942 2.08453 23.1517 5.35265 26.3625L21.0626 42.0724C24.388 45.3979 28.8029 47.118 33.2177 47.118C37.6325 47.118 42.0474 45.4552 45.3728 42.0724L45.4875 41.9578C46.8062 40.6391 46.8062 38.4603 45.4301 37.0843ZM43.8247 40.3524L43.7101 40.467C37.9192 46.2579 28.4588 46.2579 22.6106 40.467L6.90071 24.7571C4.09127 21.9477 2.54321 18.2209 2.54321 14.2074C2.54321 10.1939 4.09127 6.46712 6.90071 3.65768L7.01538 3.54301C7.24472 3.31367 7.5314 3.199 7.81808 3.199C8.10475 3.199 8.39143 3.31367 8.62077 3.54301L16.8197 11.742C17.2784 12.2007 17.2784 12.8887 16.8197 13.3474L14.3543 15.8128C13.4943 16.6728 13.0356 17.8195 13.0356 19.0809C13.0356 20.285 13.4943 21.4317 14.3543 22.349L25.0187 33.0134C26.7961 34.7908 29.7202 34.7908 31.4976 33.0134L33.9631 30.548C34.4217 30.0893 35.1098 30.0893 35.5684 30.548L43.7674 38.747C44.2834 39.1483 44.2834 39.8937 43.8247 40.3524ZM29.6056 2.28163C29.6056 1.65094 30.1216 1.13492 30.7523 1.13492C39.2952 1.13492 46.2328 8.07251 46.2328 16.6155C46.2328 17.2462 45.7168 17.7622 45.0861 17.7622C44.4554 17.7622 43.9394 17.2462 43.9394 16.6155C43.9394 9.33389 38.0339 3.42834 30.7523 3.42834C30.1216 3.42834 29.6056 2.91232 29.6056 2.28163ZM29.6056 8.01518C29.6056 7.38449 30.1216 6.86847 30.7523 6.86847C36.1418 6.86847 40.4993 11.226 40.4993 16.6155C40.4993 17.2462 39.9833 17.7622 39.3526 17.7622C38.7219 17.7622 38.2059 17.2462 38.2059 16.6155C38.2059 12.4873 34.8804 9.16189 30.7523 9.16189C30.1216 9.16189 29.6056 8.64587 29.6056 8.01518ZM29.6056 13.7487C29.6056 13.118 30.1216 12.602 30.7523 12.602C32.9883 12.602 34.7657 14.3794 34.7657 16.6155C34.7657 17.2462 34.2497 17.7622 33.619 17.7622C32.9883 17.7622 32.4723 17.2462 32.4723 16.6155C32.4723 15.6408 31.727 14.8954 30.7523 14.8954C30.1216 14.8954 29.6056 14.3794 29.6056 13.7487Z" fill="white"/>
</svg>
